<svg width="24" height="24" viewBox="0 0 24 24" fill="none" xmlns="http://www.w3.org/2000/svg">
<g clip-path="url(#clip0_27_480)">
<path d="M23.0938 9.91345L13.3045 9.91298C12.8722 9.91298 12.5218 10.2633 12.5218 10.6956V13.8229C12.5218 14.2551 12.8722 14.6055 13.3044 14.6055H18.8172C18.2135 16.1721 17.0869 17.4841 15.6494 18.3177L18 22.3869C21.7707 20.2061 24 16.3798 24 12.0964C24 11.4865 23.9551 11.0505 23.8652 10.5596C23.7968 10.1866 23.473 9.91345 23.0938 9.91345Z" fill="#167EE6"/>
<path d="M11.9994 19.3044C9.30152 19.3044 6.94633 17.8303 5.68141 15.6491L1.61238 17.9944C3.68308 21.5833 7.56218 24 11.9994 24C14.1761 24 16.23 23.4139 17.9994 22.3926V22.387L15.6487 18.3178C14.5735 18.9414 13.3293 19.3044 11.9994 19.3044Z" fill="#12B347"/>
<path d="M18.0007 22.3925V22.3869L15.65 18.3177C14.5748 18.9413 13.3307 19.3043 12.0007 19.3043V23.9999C14.1774 23.9999 16.2314 23.4138 18.0007 22.3925Z" fill="#0F993E"/>
<path d="M4.69632 12C4.69632 10.6702 5.05923 9.42606 5.68271 8.35089L1.61368 6.00555C0.586697 7.76931 0.0006661 9.81766 0.0006661 12C0.0006661 14.1823 0.586697 16.2306 1.61368 17.9944L5.68271 15.649C5.05923 14.5739 4.69632 13.3298 4.69632 12Z" fill="#FFD500"/>
<path d="M11.9994 4.69563C13.7586 4.69563 15.3746 5.32075 16.6368 6.36058C16.9482 6.61708 17.4008 6.59856 17.686 6.31333L19.9018 4.09755C20.2254 3.77392 20.2024 3.24419 19.8566 2.94428C17.7419 1.10964 14.9903 -3.09814e-05 11.9994 -3.09814e-05C7.56218 -3.09814e-05 3.68308 2.4167 1.61238 6.00555L5.68141 8.35089C6.94633 6.16966 9.30152 4.69563 11.9994 4.69563Z" fill="#FE724C"/>
<path d="M16.6381 6.36058C16.9495 6.61708 17.4021 6.59856 17.6873 6.31333L19.9031 4.09755C20.2267 3.77392 20.2036 3.24419 19.858 2.94428C17.7432 1.10959 14.9916 -3.09814e-05 12.0007 -3.09814e-05V4.69563C13.7599 4.69563 15.3759 5.32075 16.6381 6.36058Z" fill="#D93F21"/>
</g>
<defs>
<clipPath id="clip0_27_480">
<rect width="23.6407" height="23.6407" fill="white" transform="scale(1.0152)"/>
</clipPath>
</defs>
</svg>
