<svg width="24" height="24" viewBox="0 0 24 24" fill="none" xmlns="http://www.w3.org/2000/svg">
<g clip-path="url(#clip0_27_489)">
<path d="M16.4994 -3.09814e-05C15.2199 0.0884685 13.7244 0.907464 12.8529 1.97396C12.0579 2.94145 11.4039 4.37844 11.6589 5.77493C13.0569 5.81843 14.5014 4.97994 15.3384 3.89545C16.1214 2.88595 16.7139 1.45796 16.4994 -3.09814e-05Z" fill="#A8A8A8"/>
<path d="M21.5557 8.0519C20.3272 6.51141 18.6007 5.61741 16.9702 5.61741C14.8177 5.61741 13.9072 6.6479 12.4117 6.6479C10.8698 6.6479 9.69826 5.62041 7.83677 5.62041C6.00828 5.62041 4.0613 6.7379 2.8268 8.64889C1.09131 11.3399 1.38831 16.3993 4.2008 20.7088C5.20729 22.2508 6.55128 23.9848 8.30927 23.9998C9.87376 24.0148 10.3148 22.9963 12.4342 22.9858C14.5537 22.9738 14.9557 24.0133 16.5172 23.9968C18.2767 23.9833 19.6942 22.0618 20.7007 20.5198C21.4222 19.4143 21.6907 18.8578 22.2502 17.6098C18.1807 16.0603 17.5282 10.2734 21.5557 8.0519Z" fill="#A8A8A8"/>
</g>
<defs>
<clipPath id="clip0_27_489">
<rect width="23.6407" height="23.6407" fill="white" transform="scale(1.0152)"/>
</clipPath>
</defs>
</svg>
